<svg width="22" height="21" viewBox="0 0 22 21" fill="none" xmlns="http://www.w3.org/2000/svg">
<path d="M1.40002 0.492676C1.12388 0.492676 0.900024 0.716533 0.900024 0.992676C0.900024 1.26882 1.12388 1.49268 1.40002 1.49268V0.492676ZM3.69256 0.992676L4.17517 0.861968C4.11615 0.644017 3.91836 0.492676 3.69256 0.492676V0.992676ZM7.41793 14.7479L6.93532 14.8786C7.00045 15.1191 7.23271 15.2749 7.47995 15.244L7.41793 14.7479ZM18.8806 13.3151L18.9426 13.8112C19.155 13.7847 19.3269 13.6259 19.3702 13.4164L18.8806 13.3151ZM20.6 5.00462L21.0896 5.10592C21.1201 4.95866 21.0827 4.80551 20.9877 4.6889C20.8928 4.5723 20.7504 4.50462 20.6 4.50462V5.00462ZM4.77913 5.00462L4.29651 5.13532L4.77913 5.00462ZM1.40002 1.49268H3.69256V0.492676H1.40002V1.49268ZM7.47995 15.244L18.9426 13.8112L18.8186 12.8189L7.35592 14.2518L7.47995 15.244ZM19.3702 13.4164L21.0896 5.10592L20.1104 4.90331L18.391 13.2138L19.3702 13.4164ZM3.20995 1.12338L4.29651 5.13532L5.26174 4.87391L4.17517 0.861968L3.20995 1.12338ZM4.29651 5.13532L6.93532 14.8786L7.90055 14.6172L5.26174 4.87391L4.29651 5.13532ZM20.6 4.50462H4.77913V5.50462H20.6V4.50462ZM10.5 18.4999C10.5 19.0522 10.0523 19.4999 9.50002 19.4999V20.4999C10.6046 20.4999 11.5 19.6045 11.5 18.4999H10.5ZM9.50002 19.4999C8.94774 19.4999 8.50002 19.0522 8.50002 18.4999H7.50002C7.50002 19.6045 8.39545 20.4999 9.50002 20.4999V19.4999ZM8.50002 18.4999C8.50002 17.9477 8.94774 17.4999 9.50002 17.4999V16.4999C8.39545 16.4999 7.50002 17.3954 7.50002 18.4999H8.50002ZM9.50002 17.4999C10.0523 17.4999 10.5 17.9477 10.5 18.4999H11.5C11.5 17.3954 10.6046 16.4999 9.50002 16.4999V17.4999ZM18.5 18.4999C18.5 19.0522 18.0523 19.4999 17.5 19.4999V20.4999C18.6046 20.4999 19.5 19.6045 19.5 18.4999H18.5ZM17.5 19.4999C16.9477 19.4999 16.5 19.0522 16.5 18.4999H15.5C15.5 19.6045 16.3955 20.4999 17.5 20.4999V19.4999ZM16.5 18.4999C16.5 17.9477 16.9477 17.4999 17.5 17.4999V16.4999C16.3955 16.4999 15.5 17.3954 15.5 18.4999H16.5ZM17.5 17.4999C18.0523 17.4999 18.5 17.9477 18.5 18.4999H19.5C19.5 17.3954 18.6046 16.4999 17.5 16.4999V17.4999Z" fill="#A3A6B2"/>
</svg>
