<svg width="29" height="22" viewBox="0 0 29 22" fill="none" xmlns="http://www.w3.org/2000/svg">
<path d="M1 0.5C0.723858 0.5 0.5 0.723858 0.5 1C0.5 1.27614 0.723858 1.5 1 1.5V0.5ZM3.38806 1L3.871 0.870516C3.8124 0.651961 3.61433 0.5 3.38806 0.5V1ZM7.26866 15.4736L6.78571 15.6031C6.85042 15.8445 7.08338 16.001 7.33129 15.9697L7.26866 15.4736ZM19.209 13.966L19.2716 14.462C19.484 14.4352 19.6558 14.2761 19.6988 14.0663L19.209 13.966ZM21 5.22148L21.4898 5.32181C21.52 5.17466 21.4824 5.02176 21.3874 4.90538C21.2924 4.789 21.1502 4.72148 21 4.72148V5.22148ZM4.5199 5.22148L4.03696 5.35096L4.5199 5.22148ZM1 1.5H3.38806V0.5H1V1.5ZM7.33129 15.9697L19.2716 14.462L19.1463 13.4699L7.20602 14.9776L7.33129 15.9697ZM19.6988 14.0663L21.4898 5.32181L20.5102 5.12115L18.7191 13.8656L19.6988 14.0663ZM2.90512 1.12948L4.03696 5.35096L5.00284 5.092L3.871 0.870516L2.90512 1.12948ZM4.03696 5.35096L6.78571 15.6031L7.7516 15.3442L5.00284 5.092L4.03696 5.35096ZM21 4.72148H4.5199V5.72148H21V4.72148ZM10.5 19.4217C10.5 20.022 10.0196 20.5 9.4375 20.5V21.5C10.5813 21.5 11.5 20.5647 11.5 19.4217H10.5ZM9.4375 20.5C8.85544 20.5 8.375 20.022 8.375 19.4217H7.375C7.375 20.5647 8.29367 21.5 9.4375 21.5V20.5ZM8.375 19.4217C8.375 18.8213 8.85544 18.3433 9.4375 18.3433V17.3433C8.29367 17.3433 7.375 18.2786 7.375 19.4217H8.375ZM9.4375 18.3433C10.0196 18.3433 10.5 18.8213 10.5 19.4217H11.5C11.5 18.2786 10.5813 17.3433 9.4375 17.3433V18.3433ZM18.8333 19.4217C18.8333 20.022 18.3529 20.5 17.7708 20.5V21.5C18.9147 21.5 19.8333 20.5647 19.8333 19.4217H18.8333ZM17.7708 20.5C17.1888 20.5 16.7083 20.022 16.7083 19.4217H15.7083C15.7083 20.5647 16.627 21.5 17.7708 21.5V20.5ZM16.7083 19.4217C16.7083 18.8213 17.1888 18.3433 17.7708 18.3433V17.3433C16.627 17.3433 15.7083 18.2786 15.7083 19.4217H16.7083ZM17.7708 18.3433C18.3529 18.3433 18.8333 18.8213 18.8333 19.4217H19.8333C19.8333 18.2786 18.9147 17.3433 17.7708 17.3433V18.3433Z" fill="white"/>
<path d="M25.5 2.5C25.5 1.94772 25.0523 1.5 24.5 1.5C23.9477 1.5 23.5 1.94772 23.5 2.5V4.07143H21.4286C20.9157 4.07143 20.5 4.48716 20.5 5C20.5 5.51284 20.9157 5.92857 21.4286 5.92857H23.5V7.5C23.5 8.05229 23.9477 8.5 24.5 8.5C25.0523 8.5 25.5 8.05228 25.5 7.5V5.92857H27.5714C28.0843 5.92857 28.5 5.51284 28.5 5C28.5 4.48716 28.0843 4.07143 27.5714 4.07143H25.5V2.5Z" fill="white" stroke="#E30613"/>
</svg>
