<svg width="18" height="17" viewBox="0 0 18 17"  xmlns="http://www.w3.org/2000/svg">
<path d="M9 10.5L8.67191 10.8773C8.86005 11.0409 9.13995 11.0409 9.32809 10.8773L9 10.5ZM4.63659 10.8913C4.90223 10.8158 5.05642 10.5393 4.98098 10.2737C4.90554 10.0081 4.62905 9.85387 4.36341 9.9293L4.63659 10.8913ZM13.6366 9.9293C13.371 9.85387 13.0945 10.0081 13.019 10.2737C12.9436 10.5393 13.0978 10.8158 13.3634 10.8913L13.6366 9.9293ZM12.5 4.41304C12.5 4.9462 12.2923 5.5669 11.9353 6.2267C11.5818 6.87981 11.1042 7.53078 10.6165 8.114C10.1301 8.69556 9.64223 9.19944 9.27535 9.55834C9.09222 9.7375 8.93998 9.87979 8.83412 9.97678C8.7812 10.0253 8.73993 10.0624 8.71224 10.087C8.69839 10.0994 8.68795 10.1086 8.68114 10.1146C8.67774 10.1176 8.67525 10.1198 8.6737 10.1211C8.67293 10.1218 8.67239 10.1223 8.67209 10.1225C8.67194 10.1227 8.67185 10.1228 8.67182 10.1228C8.6718 10.1228 8.67183 10.1228 8.67182 10.1228C8.67186 10.1227 8.67191 10.1227 9 10.5C9.32809 10.8773 9.32817 10.8772 9.32827 10.8771C9.32833 10.8771 9.32844 10.877 9.32855 10.8769C9.32876 10.8767 9.32903 10.8765 9.32937 10.8762C9.33004 10.8756 9.33095 10.8748 9.3321 10.8738C9.33439 10.8718 9.33764 10.869 9.34181 10.8653C9.35014 10.8579 9.36216 10.8473 9.37761 10.8336C9.40851 10.806 9.45317 10.7658 9.50963 10.7141C9.62252 10.6107 9.78278 10.4609 9.97465 10.2732C10.3578 9.89838 10.8699 9.36965 11.3835 8.75556C11.8958 8.14313 12.4182 7.43541 12.8147 6.70265C13.2077 5.97658 13.5 5.18424 13.5 4.41304H12.5ZM9 10.5C9.32809 10.1227 9.32814 10.1227 9.32818 10.1228C9.32817 10.1228 9.3282 10.1228 9.32818 10.1228C9.32815 10.1228 9.32806 10.1227 9.32791 10.1225C9.32761 10.1223 9.32707 10.1218 9.3263 10.1211C9.32475 10.1198 9.32226 10.1176 9.31886 10.1146C9.31205 10.1086 9.30161 10.0994 9.28776 10.087C9.26007 10.0624 9.2188 10.0253 9.16588 9.97678C9.06002 9.87979 8.90778 9.7375 8.72465 9.55834C8.35777 9.19944 7.86993 8.69556 7.38354 8.114C6.89576 7.53078 6.41818 6.87981 6.06474 6.2267C5.70767 5.5669 5.5 4.9462 5.5 4.41304H4.5C4.5 5.18424 4.79233 5.97658 5.18527 6.70265C5.58182 7.43541 6.10425 8.14313 6.61646 8.75556C7.13007 9.36965 7.64223 9.89838 8.02535 10.2732C8.21722 10.4609 8.37748 10.6107 8.49037 10.7141C8.54683 10.7658 8.59149 10.806 8.62239 10.8336C8.63785 10.8473 8.64986 10.8579 8.65819 10.8653C8.66236 10.869 8.66561 10.8718 8.6679 10.8738C8.66905 10.8748 8.66996 10.8756 8.67063 10.8762C8.67097 10.8765 8.67124 10.8767 8.67145 10.8769C8.67156 10.877 8.67168 10.8771 8.67173 10.8771C8.67183 10.8772 8.67191 10.8773 9 10.5ZM5.5 4.41304C5.5 2.53837 7.05659 1 9 1V0C6.52514 0 4.5 1.96548 4.5 4.41304H5.5ZM9 1C10.9434 1 12.5 2.53837 12.5 4.41304H13.5C13.5 1.96548 11.4749 0 9 0V1ZM16.5 13.1667C16.5 13.4527 16.363 13.7705 16.0204 14.108C15.6761 14.4471 15.1522 14.7756 14.4645 15.0622C13.0913 15.6343 11.1596 16 9 16V17C11.2587 17 13.3269 16.6195 14.8492 15.9852C15.6092 15.6686 16.2569 15.2788 16.7222 14.8203C17.1893 14.3602 17.5 13.8011 17.5 13.1667H16.5ZM9 16C6.84038 16 4.90866 15.6343 3.53545 15.0622C2.84776 14.7756 2.32388 14.4471 1.97957 14.108C1.63702 13.7705 1.5 13.4527 1.5 13.1667H0.5C0.5 13.8011 0.810694 14.3602 1.27779 14.8203C1.74312 15.2788 2.39082 15.6686 3.15084 15.9852C4.67306 16.6195 6.74135 17 9 17V16ZM1.5 13.1667C1.5 12.812 1.71424 12.4028 2.26296 11.9798C2.80666 11.5608 3.61675 11.1809 4.63659 10.8913L4.36341 9.9293C3.27048 10.2397 2.33057 10.6651 1.65247 11.1878C0.979371 11.7066 0.5 12.3756 0.5 13.1667H1.5ZM13.3634 10.8913C14.3833 11.1809 15.1933 11.5608 15.737 11.9798C16.2858 12.4028 16.5 12.812 16.5 13.1667H17.5C17.5 12.3756 17.0206 11.7066 16.3475 11.1878C15.6694 10.6651 14.7295 10.2397 13.6366 9.9293L13.3634 10.8913Z"/>
</svg>
