<svg width="16" height="16" viewBox="0 0 16 16" fill="none" xmlns="http://www.w3.org/2000/svg">
<path d="M15.2194 13.6423C15.2194 13.6423 14.2539 14.5906 14.0173 14.8686C13.6318 15.28 13.1777 15.4742 12.5823 15.4742C12.525 15.4742 12.464 15.4742 12.4067 15.4704C11.2733 15.398 10.2199 14.9562 9.42994 14.5792C7.26985 13.5356 5.37309 12.0541 3.79691 10.1764C2.49551 8.61108 1.62537 7.16381 1.04909 5.60989C0.694164 4.66155 0.564406 3.92268 0.621652 3.2257C0.659816 2.78009 0.831555 2.41066 1.14832 2.09454L2.44971 0.795802C2.63672 0.620606 2.83517 0.525391 3.02981 0.525391C3.27024 0.525391 3.46488 0.670118 3.58701 0.791994C3.59082 0.795802 3.59464 0.799611 3.59846 0.80342C3.83126 1.02051 4.05261 1.24522 4.28541 1.48516C4.40372 1.60704 4.52584 1.72891 4.64797 1.8546L5.68985 2.89435C6.09439 3.29806 6.09439 3.67131 5.68985 4.07502C5.57917 4.18547 5.47231 4.29592 5.36164 4.40256C5.04106 4.7301 5.29289 4.47878 4.96087 4.77586C4.95323 4.78347 4.9456 4.78728 4.94178 4.7949C4.61357 5.12244 4.67463 5.44236 4.74333 5.65946C4.74715 5.67088 4.75096 5.68231 4.75478 5.69373C5.02574 6.34881 5.40739 6.96581 5.98748 7.70087L5.9913 7.70468C7.04463 8.99961 8.1552 10.0089 9.38027 10.782C9.53675 10.8811 9.69704 10.961 9.84969 11.0372C9.98708 11.1058 10.1168 11.1705 10.2275 11.2391C10.2428 11.2467 10.258 11.2581 10.2733 11.2657C10.4031 11.3305 10.5252 11.361 10.6511 11.361C10.9679 11.361 11.1664 11.1629 11.2312 11.0982L11.9793 10.3516C12.1091 10.2221 12.3151 10.066 12.5556 10.066C12.7922 10.066 12.9868 10.2145 13.1051 10.344C13.109 10.3478 13.109 10.3478 13.1128 10.3516L15.2156 12.4502C15.6087 12.8386 15.2194 13.6423 15.2194 13.6423Z" stroke="white" stroke-linecap="round" stroke-linejoin="round"/>
</svg>
