<svg xmlns="http://www.w3.org/2000/svg">
    <symbol id="user" viewBox="0 0 22 22">
        <path d="M1.40002 19.5123C1.40002 15.7368 4.55431 12.6761 11 12.6761C17.4457 12.6761 20.6 15.7368 20.6 19.5123C20.6 20.113 20.1618 20.5999 19.6212 20.5999H2.37885C1.83826 20.5999 1.40002 20.113 1.40002 19.5123Z"/>
        <path d="M14.6 4.9999C14.6 6.98813 12.9882 8.5999 11 8.5999C9.0118 8.5999 7.40002 6.98813 7.40002 4.9999C7.40002 3.01168 9.0118 1.3999 11 1.3999C12.9882 1.3999 14.6 3.01168 14.6 4.9999Z"/>
    </symbol>

    <symbol id="selected" viewBox="0 0 16 21">
    <path d="M0.800049 2.3999C0.800049 1.84762 1.24776 1.3999 1.80005 1.3999H14.2001C14.7523 1.3999 15.2001 1.84762 15.2001 2.3999V19.5324C15.2001 19.9563 14.7056 20.1879 14.38 19.9165L8.00005 14.5999L1.62014 19.9165C1.29448 20.1879 0.800049 19.9563 0.800049 19.5324V2.3999Z" /></symbol>

    <symbol id="search" viewBox="0 0 16 16">
    <path d="M12.1057 12.2L15 15M14.0667 7.53333C14.0667 11.1416 11.1416 14.0667 7.53333 14.0667C3.92507 14.0667 1 11.1416 1 7.53333C1 3.92507 3.92507 1 7.53333 1C11.1416 1 14.0667 3.92507 14.0667 7.53333Z" />
    </symbol>

    <symbol id="phone" viewBox="0 0 16 16">
    <path d="M15.2194 13.6423C15.2194 13.6423 14.2539 14.5906 14.0173 14.8686C13.6318 15.28 13.1777 15.4742 12.5823 15.4742C12.525 15.4742 12.464 15.4742 12.4067 15.4704C11.2733 15.398 10.2199 14.9562 9.42994 14.5792C7.26985 13.5356 5.37309 12.0541 3.79691 10.1764C2.49551 8.61108 1.62537 7.16381 1.04909 5.60989C0.694164 4.66155 0.564406 3.92268 0.621652 3.2257C0.659816 2.78009 0.831555 2.41066 1.14832 2.09454L2.44971 0.795802C2.63672 0.620606 2.83517 0.525391 3.02981 0.525391C3.27024 0.525391 3.46488 0.670118 3.58701 0.791994C3.59082 0.795802 3.59464 0.799611 3.59846 0.80342C3.83126 1.02051 4.05261 1.24522 4.28541 1.48516C4.40372 1.60704 4.52584 1.72891 4.64797 1.8546L5.68985 2.89435C6.09439 3.29806 6.09439 3.67131 5.68985 4.07502C5.57917 4.18547 5.47231 4.29592 5.36164 4.40256C5.04106 4.7301 5.29289 4.47878 4.96087 4.77586C4.95323 4.78347 4.9456 4.78728 4.94178 4.7949C4.61357 5.12244 4.67463 5.44236 4.74333 5.65946C4.74715 5.67088 4.75096 5.68231 4.75478 5.69373C5.02574 6.34881 5.40739 6.96581 5.98748 7.70087L5.9913 7.70468C7.04463 8.99961 8.1552 10.0089 9.38027 10.782C9.53675 10.8811 9.69704 10.961 9.84969 11.0372C9.98708 11.1058 10.1168 11.1705 10.2275 11.2391C10.2428 11.2467 10.258 11.2581 10.2733 11.2657C10.4031 11.3305 10.5252 11.361 10.6511 11.361C10.9679 11.361 11.1664 11.1629 11.2312 11.0982L11.9793 10.3516C12.1091 10.2221 12.3151 10.066 12.5556 10.066C12.7922 10.066 12.9868 10.2145 13.1051 10.344C13.109 10.3478 13.109 10.3478 13.1128 10.3516L15.2156 12.4502C15.6087 12.8386 15.2194 13.6423 15.2194 13.6423Z" stroke="white" stroke-linecap="round" stroke-linejoin="round"/></symbol>

    <symbol id="message" viewBox="0 0 18 18">
    <path d="M5 5H12M5 9H9M8.73913 12.8261L4.56522 17V12.8261H3C1.89543 12.8261 1 11.9307 1 10.8261V3C1 1.89543 1.89543 1 3 1H15C16.1046 1 17 1.89543 17 3V10.8261C17 11.9307 16.1046 12.8261 15 12.8261H8.73913Z"/>
    </symbol>

    <symbol id="location" viewBox="0 0 18 17">
    <path d="M9 10.5L8.67191 10.8773C8.86005 11.0409 9.13995 11.0409 9.32809 10.8773L9 10.5ZM4.63659 10.8913C4.90223 10.8158 5.05642 10.5393 4.98098 10.2737C4.90554 10.0081 4.62905 9.85387 4.36341 9.9293L4.63659 10.8913ZM13.6366 9.9293C13.371 9.85387 13.0945 10.0081 13.019 10.2737C12.9436 10.5393 13.0978 10.8158 13.3634 10.8913L13.6366 9.9293ZM12.5 4.41304C12.5 4.9462 12.2923 5.5669 11.9353 6.2267C11.5818 6.87981 11.1042 7.53078 10.6165 8.114C10.1301 8.69556 9.64223 9.19944 9.27535 9.55834C9.09222 9.7375 8.93998 9.87979 8.83412 9.97678C8.7812 10.0253 8.73993 10.0624 8.71224 10.087C8.69839 10.0994 8.68795 10.1086 8.68114 10.1146C8.67774 10.1176 8.67525 10.1198 8.6737 10.1211C8.67293 10.1218 8.67239 10.1223 8.67209 10.1225C8.67194 10.1227 8.67185 10.1228 8.67182 10.1228C8.6718 10.1228 8.67183 10.1228 8.67182 10.1228C8.67186 10.1227 8.67191 10.1227 9 10.5C9.32809 10.8773 9.32817 10.8772 9.32827 10.8771C9.32833 10.8771 9.32844 10.877 9.32855 10.8769C9.32876 10.8767 9.32903 10.8765 9.32937 10.8762C9.33004 10.8756 9.33095 10.8748 9.3321 10.8738C9.33439 10.8718 9.33764 10.869 9.34181 10.8653C9.35014 10.8579 9.36216 10.8473 9.37761 10.8336C9.40851 10.806 9.45317 10.7658 9.50963 10.7141C9.62252 10.6107 9.78278 10.4609 9.97465 10.2732C10.3578 9.89838 10.8699 9.36965 11.3835 8.75556C11.8958 8.14313 12.4182 7.43541 12.8147 6.70265C13.2077 5.97658 13.5 5.18424 13.5 4.41304H12.5ZM9 10.5C9.32809 10.1227 9.32814 10.1227 9.32818 10.1228C9.32817 10.1228 9.3282 10.1228 9.32818 10.1228C9.32815 10.1228 9.32806 10.1227 9.32791 10.1225C9.32761 10.1223 9.32707 10.1218 9.3263 10.1211C9.32475 10.1198 9.32226 10.1176 9.31886 10.1146C9.31205 10.1086 9.30161 10.0994 9.28776 10.087C9.26007 10.0624 9.2188 10.0253 9.16588 9.97678C9.06002 9.87979 8.90778 9.7375 8.72465 9.55834C8.35777 9.19944 7.86993 8.69556 7.38354 8.114C6.89576 7.53078 6.41818 6.87981 6.06474 6.2267C5.70767 5.5669 5.5 4.9462 5.5 4.41304H4.5C4.5 5.18424 4.79233 5.97658 5.18527 6.70265C5.58182 7.43541 6.10425 8.14313 6.61646 8.75556C7.13007 9.36965 7.64223 9.89838 8.02535 10.2732C8.21722 10.4609 8.37748 10.6107 8.49037 10.7141C8.54683 10.7658 8.59149 10.806 8.62239 10.8336C8.63785 10.8473 8.64986 10.8579 8.65819 10.8653C8.66236 10.869 8.66561 10.8718 8.6679 10.8738C8.66905 10.8748 8.66996 10.8756 8.67063 10.8762C8.67097 10.8765 8.67124 10.8767 8.67145 10.8769C8.67156 10.877 8.67168 10.8771 8.67173 10.8771C8.67183 10.8772 8.67191 10.8773 9 10.5ZM5.5 4.41304C5.5 2.53837 7.05659 1 9 1V0C6.52514 0 4.5 1.96548 4.5 4.41304H5.5ZM9 1C10.9434 1 12.5 2.53837 12.5 4.41304H13.5C13.5 1.96548 11.4749 0 9 0V1ZM16.5 13.1667C16.5 13.4527 16.363 13.7705 16.0204 14.108C15.6761 14.4471 15.1522 14.7756 14.4645 15.0622C13.0913 15.6343 11.1596 16 9 16V17C11.2587 17 13.3269 16.6195 14.8492 15.9852C15.6092 15.6686 16.2569 15.2788 16.7222 14.8203C17.1893 14.3602 17.5 13.8011 17.5 13.1667H16.5ZM9 16C6.84038 16 4.90866 15.6343 3.53545 15.0622C2.84776 14.7756 2.32388 14.4471 1.97957 14.108C1.63702 13.7705 1.5 13.4527 1.5 13.1667H0.5C0.5 13.8011 0.810694 14.3602 1.27779 14.8203C1.74312 15.2788 2.39082 15.6686 3.15084 15.9852C4.67306 16.6195 6.74135 17 9 17V16ZM1.5 13.1667C1.5 12.812 1.71424 12.4028 2.26296 11.9798C2.80666 11.5608 3.61675 11.1809 4.63659 10.8913L4.36341 9.9293C3.27048 10.2397 2.33057 10.6651 1.65247 11.1878C0.979371 11.7066 0.5 12.3756 0.5 13.1667H1.5ZM13.3634 10.8913C14.3833 11.1809 15.1933 11.5608 15.737 11.9798C16.2858 12.4028 16.5 12.812 16.5 13.1667H17.5C17.5 12.3756 17.0206 11.7066 16.3475 11.1878C15.6694 10.6651 14.7295 10.2397 13.6366 9.9293L13.3634 10.8913Z" fill="white"/>
    </symbol>

    <symbol id="email" viewBox="0 0 18 14">
        <path d="M2 2.08691L9 7.58691L16.5 2.08691M6.5 7.50358L2 12.0869M16 11.6702L11 7.08692M3 12.913C1.89543 12.913 1 12.0176 1 10.913V3.08692C1 1.98235 1.89543 1.08691 3 1.08691H15C16.1046 1.08691 17 1.98234 17 3.08691V10.913C17 12.0176 16.1046 12.913 15 12.913H3Z" stroke="white" stroke-linecap="round" stroke-linejoin="round"/>
    </symbol>

    <symbol id="basked" viewBox="0 0 22 21">
        <path d="M1.40002 0.492676C1.12388 0.492676 0.900024 0.716533 0.900024 0.992676C0.900024 1.26882 1.12388 1.49268 1.40002 1.49268V0.492676ZM3.69256 0.992676L4.17517 0.861968C4.11615 0.644017 3.91836 0.492676 3.69256 0.492676V0.992676ZM7.41793 14.7479L6.93532 14.8786C7.00045 15.1191 7.23271 15.2749 7.47995 15.244L7.41793 14.7479ZM18.8806 13.3151L18.9426 13.8112C19.155 13.7847 19.3269 13.6259 19.3702 13.4164L18.8806 13.3151ZM20.6 5.00462L21.0896 5.10592C21.1201 4.95866 21.0827 4.80551 20.9877 4.6889C20.8928 4.5723 20.7504 4.50462 20.6 4.50462V5.00462ZM4.77913 5.00462L4.29651 5.13532L4.77913 5.00462ZM1.40002 1.49268H3.69256V0.492676H1.40002V1.49268ZM7.47995 15.244L18.9426 13.8112L18.8186 12.8189L7.35592 14.2518L7.47995 15.244ZM19.3702 13.4164L21.0896 5.10592L20.1104 4.90331L18.391 13.2138L19.3702 13.4164ZM3.20995 1.12338L4.29651 5.13532L5.26174 4.87391L4.17517 0.861968L3.20995 1.12338ZM4.29651 5.13532L6.93532 14.8786L7.90055 14.6172L5.26174 4.87391L4.29651 5.13532ZM20.6 4.50462H4.77913V5.50462H20.6V4.50462ZM10.5 18.4999C10.5 19.0522 10.0523 19.4999 9.50002 19.4999V20.4999C10.6046 20.4999 11.5 19.6045 11.5 18.4999H10.5ZM9.50002 19.4999C8.94774 19.4999 8.50002 19.0522 8.50002 18.4999H7.50002C7.50002 19.6045 8.39545 20.4999 9.50002 20.4999V19.4999ZM8.50002 18.4999C8.50002 17.9477 8.94774 17.4999 9.50002 17.4999V16.4999C8.39545 16.4999 7.50002 17.3954 7.50002 18.4999H8.50002ZM9.50002 17.4999C10.0523 17.4999 10.5 17.9477 10.5 18.4999H11.5C11.5 17.3954 10.6046 16.4999 9.50002 16.4999V17.4999ZM18.5 18.4999C18.5 19.0522 18.0523 19.4999 17.5 19.4999V20.4999C18.6046 20.4999 19.5 19.6045 19.5 18.4999H18.5ZM17.5 19.4999C16.9477 19.4999 16.5 19.0522 16.5 18.4999H15.5C15.5 19.6045 16.3955 20.4999 17.5 20.4999V19.4999ZM16.5 18.4999C16.5 17.9477 16.9477 17.4999 17.5 17.4999V16.4999C16.3955 16.4999 15.5 17.3954 15.5 18.4999H16.5ZM17.5 17.4999C18.0523 17.4999 18.5 17.9477 18.5 18.4999H19.5C19.5 17.3954 18.6046 16.4999 17.5 16.4999V17.4999Z" fill="#A3A6B2"/>
    </symbol>

    <symbol id="arrow" viewBox="0 0 5 10">
    <path d="M0.75 1.25L4.5 5L0.75 8.75" />
    </symbol>

    <symbol id="cross" viewBox="0 0 8 8">
        <path d="M6.91683 1.08399L1.0835 6.91732M6.91683 6.91732L1.0835 1.08398"/>
    </symbol>

    <symbol id="burger"  viewBox="0 0 14 12">
        <path d="M13.4 10.8002H0.599976M13.4 6.0002H0.599976M13.4 1.2002H0.599976" />
    </symbol>

    <symbol id="basket-product" viewBox="0 0 29 22">
        <path d="M1 0.5C0.723858 0.5 0.5 0.723858 0.5 1C0.5 1.27614 0.723858 1.5 1 1.5V0.5ZM3.38806 1L3.871 0.870516C3.8124 0.651961 3.61433 0.5 3.38806 0.5V1ZM7.26866 15.4736L6.78571 15.6031C6.85042 15.8445 7.08338 16.001 7.33129 15.9697L7.26866 15.4736ZM19.209 13.966L19.2716 14.462C19.484 14.4352 19.6558 14.2761 19.6988 14.0663L19.209 13.966ZM21 5.22148L21.4898 5.32181C21.52 5.17466 21.4824 5.02176 21.3874 4.90538C21.2924 4.789 21.1502 4.72148 21 4.72148V5.22148ZM4.5199 5.22148L4.03696 5.35096L4.5199 5.22148ZM1 1.5H3.38806V0.5H1V1.5ZM7.33129 15.9697L19.2716 14.462L19.1463 13.4699L7.20602 14.9776L7.33129 15.9697ZM19.6988 14.0663L21.4898 5.32181L20.5102 5.12115L18.7191 13.8656L19.6988 14.0663ZM2.90512 1.12948L4.03696 5.35096L5.00284 5.092L3.871 0.870516L2.90512 1.12948ZM4.03696 5.35096L6.78571 15.6031L7.7516 15.3442L5.00284 5.092L4.03696 5.35096ZM21 4.72148H4.5199V5.72148H21V4.72148ZM10.5 19.4217C10.5 20.022 10.0196 20.5 9.4375 20.5V21.5C10.5813 21.5 11.5 20.5647 11.5 19.4217H10.5ZM9.4375 20.5C8.85544 20.5 8.375 20.022 8.375 19.4217H7.375C7.375 20.5647 8.29367 21.5 9.4375 21.5V20.5ZM8.375 19.4217C8.375 18.8213 8.85544 18.3433 9.4375 18.3433V17.3433C8.29367 17.3433 7.375 18.2786 7.375 19.4217H8.375ZM9.4375 18.3433C10.0196 18.3433 10.5 18.8213 10.5 19.4217H11.5C11.5 18.2786 10.5813 17.3433 9.4375 17.3433V18.3433ZM18.8333 19.4217C18.8333 20.022 18.3529 20.5 17.7708 20.5V21.5C18.9147 21.5 19.8333 20.5647 19.8333 19.4217H18.8333ZM17.7708 20.5C17.1888 20.5 16.7083 20.022 16.7083 19.4217H15.7083C15.7083 20.5647 16.627 21.5 17.7708 21.5V20.5ZM16.7083 19.4217C16.7083 18.8213 17.1888 18.3433 17.7708 18.3433V17.3433C16.627 17.3433 15.7083 18.2786 15.7083 19.4217H16.7083ZM17.7708 18.3433C18.3529 18.3433 18.8333 18.8213 18.8333 19.4217H19.8333C19.8333 18.2786 18.9147 17.3433 17.7708 17.3433V18.3433Z" fill="white"/>
        <path d="M25.5 2.5C25.5 1.94772 25.0523 1.5 24.5 1.5C23.9477 1.5 23.5 1.94772 23.5 2.5V4.07143H21.4286C20.9157 4.07143 20.5 4.48716 20.5 5C20.5 5.51284 20.9157 5.92857 21.4286 5.92857H23.5V7.5C23.5 8.05229 23.9477 8.5 24.5 8.5C25.0523 8.5 25.5 8.05228 25.5 7.5V5.92857H27.5714C28.0843 5.92857 28.5 5.51284 28.5 5C28.5 4.48716 28.0843 4.07143 27.5714 4.07143H25.5V2.5Z"/>
    </symbol>

    <symbol id="filter-btn" viewBox="0 0 20 20">
        <path d="M5.5 10H14.5M3.5 6H16.5M8.5 14H11.5" stroke="#1D1D1B" stroke-linecap="round" stroke-linejoin="round"/>
    </symbol>

    <symbol id="filter-active" viewBox="0 0 16 16">
        <line x1="4.5" y1="5.5" x2="9.5" y2="5.5" stroke="#FB868C" stroke-linecap="round"/>
        <line x1="4.5" y1="8.5" x2="12.5" y2="8.5" stroke="#FB868C" stroke-linecap="round"/>
        <line x1="4.5" y1="11.5" x2="12.5" y2="11.5" stroke="#FB868C" stroke-linecap="round"/>
    </symbol>

    <symbol id="sort" viewBox="0 0 16 26">
        <path d="M5 10L8 7L11 10" />
        <path d="M11 17L8 20L5 17" />
    </symbol>

    <symbol id="castle" viewBox="0 0 14 18">
        <path d="M2.5 6.33333V5.57143C2.5 3.039 4.50714 1 7 1C9.49286 1 11.5 3.039 11.5 5.57143V6.33333M2.5 6.33333C1.675 6.33333 1 7.01905 1 7.85714V15.4762C1 16.3143 1.675 17 2.5 17H11.5C12.325 17 13 16.3143 13 15.4762V7.85714C13 7.01905 12.325 6.33333 11.5 6.33333M2.5 6.33333H11.5" />
    </symbol>

    <symbol id="eye-open" viewBox="0 0 512 512">
        <g><path d="   M256,193.4c-46.4,0-86.8,25.2-108.5,62.6c21.7,37.4,62.1,62.6,108.5,62.6c46.4,0,86.8-25.2,108.5-62.6   C342.8,218.6,302.4,193.4,256,193.4z" stroke-linecap="round" stroke-miterlimit="20" stroke-width="10"/>
        <circle cx="256" cy="256"  r="37.7"  stroke-linecap="round" stroke-linejoin="round" stroke-miterlimit="10" stroke-width="10"/></g>
    </symbol>

    <symbol id="eye-hidden" viewBox="0 0 18 14">
        <path d="M16 13.25L3.5 0.75M7.5 5.70131C7.18882 6.04438 7 6.49503 7 6.98859C7 8.06341 7.89543 8.93472 9 8.93472C9.50929 8.93472 9.97411 8.74949 10.3272 8.44449M16.0323 8.93472C16.7209 7.90402 17 7.06344 17 7.06344C17 7.06344 15.1795 1.25 9 1.25C8.65308 1.25 8.31989 1.26832 8 1.30291M13.5 11.4579C12.3521 12.1901 10.8744 12.7079 9 12.6773C2.89744 12.5775 1 7.06344 1 7.06344C1 7.06344 1.88155 4.2484 4.5 2.5361"/>
    </symbol>
</svg>